<mxfile host="65bd71144e">
    <diagram id="9LfndPILFKv0qXf8jNMk" name="第 1 页">
        <mxGraphModel dx="394" dy="324" grid="1" gridSize="10" guides="1" tooltips="1" connect="1" arrows="1" fold="1" page="1" pageScale="1" pageWidth="827" pageHeight="1169" background="none" math="0" shadow="0">
            <root>
                <mxCell id="0"/>
                <mxCell id="1" parent="0"/>
                <mxCell id="35" value="" style="edgeStyle=none;html=1;fontFamily=Helvetica;exitX=0.5;exitY=1;exitDx=0;exitDy=0;" parent="1" source="45" target="28" edge="1">
                    <mxGeometry relative="1" as="geometry">
                        <mxPoint x="382" y="90" as="sourcePoint"/>
                    </mxGeometry>
                </mxCell>
                <mxCell id="36" value="微信登陆" style="edgeLabel;html=1;align=center;verticalAlign=middle;resizable=0;points=[];fontFamily=Helvetica;" parent="35" vertex="1" connectable="0">
                    <mxGeometry x="-0.2353" relative="1" as="geometry">
                        <mxPoint as="offset"/>
                    </mxGeometry>
                </mxCell>
                <mxCell id="12" value="" style="edgeStyle=none;html=1;entryX=0.5;entryY=0;entryDx=0;entryDy=0;exitX=0.5;exitY=1;exitDx=0;exitDy=0;" parent="1" source="6" target="13" edge="1">
                    <mxGeometry relative="1" as="geometry">
                        <mxPoint x="387" y="640" as="targetPoint"/>
                    </mxGeometry>
                </mxCell>
                <mxCell id="6" value="外卖员操作中心&lt;br&gt;柜子预览视图" style="rounded=0;whiteSpace=wrap;html=1;" parent="1" vertex="1">
                    <mxGeometry x="321" y="520" width="120" height="60" as="geometry"/>
                </mxCell>
                <mxCell id="7" value="自动登出&lt;br&gt;&lt;span style=&quot;text-align: left&quot;&gt;默认15秒内无操作后执行&lt;/span&gt;" style="rounded=0;whiteSpace=wrap;html=1;" parent="1" vertex="1">
                    <mxGeometry x="573" y="520" width="150" height="60" as="geometry"/>
                </mxCell>
                <mxCell id="8" value="主动登出&lt;br&gt;" style="rounded=0;whiteSpace=wrap;html=1;" parent="1" vertex="1">
                    <mxGeometry x="103" y="520" width="120" height="60" as="geometry"/>
                </mxCell>
                <mxCell id="9" value="" style="endArrow=none;dashed=1;html=1;dashPattern=1 3;strokeWidth=2;entryX=0;entryY=0.5;entryDx=0;entryDy=0;exitX=1;exitY=0.5;exitDx=0;exitDy=0;" parent="1" source="6" target="7" edge="1">
                    <mxGeometry width="50" height="50" relative="1" as="geometry">
                        <mxPoint x="373" y="580" as="sourcePoint"/>
                        <mxPoint x="423" y="530" as="targetPoint"/>
                    </mxGeometry>
                </mxCell>
                <mxCell id="10" value="" style="endArrow=none;html=1;exitX=1;exitY=0.5;exitDx=0;exitDy=0;entryX=0;entryY=0.5;entryDx=0;entryDy=0;" parent="1" source="8" target="6" edge="1">
                    <mxGeometry width="50" height="50" relative="1" as="geometry">
                        <mxPoint x="373" y="580" as="sourcePoint"/>
                        <mxPoint x="423" y="530" as="targetPoint"/>
                    </mxGeometry>
                </mxCell>
                <mxCell id="38" style="edgeStyle=none;html=1;entryX=0.5;entryY=0;entryDx=0;entryDy=0;fontFamily=Helvetica;" parent="1" source="13" target="15" edge="1">
                    <mxGeometry relative="1" as="geometry"/>
                </mxCell>
                <mxCell id="41" value="&lt;span style=&quot;font-size: 12px&quot;&gt;提示关闭柜门&lt;/span&gt;" style="edgeLabel;html=1;align=center;verticalAlign=middle;resizable=0;points=[];fontFamily=Helvetica;" parent="38" vertex="1" connectable="0">
                    <mxGeometry x="-0.0795" relative="1" as="geometry">
                        <mxPoint as="offset"/>
                    </mxGeometry>
                </mxCell>
                <mxCell id="42" style="edgeStyle=none;html=1;entryX=0.5;entryY=0;entryDx=0;entryDy=0;fontFamily=Helvetica;" parent="1" edge="1">
                    <mxGeometry relative="1" as="geometry">
                        <mxPoint x="402.9999999999998" y="709.9999999999999" as="sourcePoint"/>
                        <mxPoint x="489.25" y="800" as="targetPoint"/>
                    </mxGeometry>
                </mxCell>
                <mxCell id="43" value="&lt;span style=&quot;font-size: 12px&quot;&gt;后端外卖信息入库&lt;/span&gt;" style="edgeLabel;html=1;align=center;verticalAlign=middle;resizable=0;points=[];fontFamily=Helvetica;" parent="42" vertex="1" connectable="0">
                    <mxGeometry x="-0.3021" y="-2" relative="1" as="geometry">
                        <mxPoint x="17" y="7" as="offset"/>
                    </mxGeometry>
                </mxCell>
                <mxCell id="13" value="输入存餐码" style="rounded=0;whiteSpace=wrap;html=1;" parent="1" vertex="1">
                    <mxGeometry x="290" y="650" width="182" height="60" as="geometry"/>
                </mxCell>
                <mxCell id="22" value="" style="edgeStyle=none;html=1;" parent="1" source="15" target="21" edge="1">
                    <mxGeometry relative="1" as="geometry"/>
                </mxCell>
                <mxCell id="15" value="系统自动发送短信" style="whiteSpace=wrap;html=1;rounded=0;" parent="1" vertex="1">
                    <mxGeometry x="189" y="810" width="120" height="60" as="geometry"/>
                </mxCell>
                <mxCell id="21" value="完成一次存餐" style="rounded=1;whiteSpace=wrap;html=1;" parent="1" vertex="1">
                    <mxGeometry x="189" y="925" width="120" height="60" as="geometry"/>
                </mxCell>
                <mxCell id="23" value="存餐码" style="shape=dataStorage;whiteSpace=wrap;html=1;fixedSize=1;" parent="1" vertex="1">
                    <mxGeometry x="442" y="800" width="100" height="80" as="geometry"/>
                </mxCell>
                <mxCell id="32" style="edgeStyle=none;html=1;entryX=1;entryY=0.5;entryDx=0;entryDy=0;fontFamily=Helvetica;exitX=1;exitY=0.5;exitDx=0;exitDy=0;" parent="1" source="28" target="45" edge="1">
                    <mxGeometry relative="1" as="geometry">
                        <mxPoint x="442" y="60" as="targetPoint"/>
                        <Array as="points">
                            <mxPoint x="514" y="180"/>
                            <mxPoint x="514" y="60"/>
                        </Array>
                    </mxGeometry>
                </mxCell>
                <mxCell id="33" value="N" style="edgeLabel;html=1;align=center;verticalAlign=middle;resizable=0;points=[];fontFamily=Helvetica;" parent="32" vertex="1" connectable="0">
                    <mxGeometry x="-0.0809" y="-1" relative="1" as="geometry">
                        <mxPoint as="offset"/>
                    </mxGeometry>
                </mxCell>
                <mxCell id="37" value="" style="edgeStyle=none;html=1;fontFamily=Helvetica;entryX=0.5;entryY=0;entryDx=0;entryDy=0;exitX=0.5;exitY=1;exitDx=0;exitDy=0;startArrow=none;" parent="1" source="50" target="6" edge="1">
                    <mxGeometry relative="1" as="geometry">
                        <mxPoint x="520" y="270" as="sourcePoint"/>
                    </mxGeometry>
                </mxCell>
                <mxCell id="52" value="Y" style="edgeLabel;html=1;align=center;verticalAlign=middle;resizable=0;points=[];" parent="37" vertex="1" connectable="0">
                    <mxGeometry x="-0.2959" y="3" relative="1" as="geometry">
                        <mxPoint as="offset"/>
                    </mxGeometry>
                </mxCell>
                <mxCell id="28" value="是否登陆成功" style="rhombus;whiteSpace=wrap;html=1;fontFamily=Helvetica;" parent="1" vertex="1">
                    <mxGeometry x="312" y="140" width="140" height="80" as="geometry"/>
                </mxCell>
                <mxCell id="45" value="选择外卖员登陆" style="rounded=1;whiteSpace=wrap;html=1;fontFamily=Helvetica;" parent="1" vertex="1">
                    <mxGeometry x="322" y="30" width="120" height="60" as="geometry"/>
                </mxCell>
                <mxCell id="46" value="向后端请求外卖信息" style="whiteSpace=wrap;html=1;fontFamily=Helvetica;" parent="1" vertex="1">
                    <mxGeometry x="322" y="250" width="120" height="60" as="geometry"/>
                </mxCell>
                <mxCell id="47" value="" style="edgeStyle=none;html=1;fontFamily=Helvetica;entryX=0.5;entryY=0;entryDx=0;entryDy=0;exitX=0.5;exitY=1;exitDx=0;exitDy=0;endArrow=none;" parent="1" source="28" target="46" edge="1">
                    <mxGeometry relative="1" as="geometry">
                        <mxPoint x="382" y="219.99999999999994" as="sourcePoint"/>
                        <mxPoint x="382" y="360" as="targetPoint"/>
                    </mxGeometry>
                </mxCell>
                <mxCell id="48" value="Y" style="edgeLabel;html=1;align=center;verticalAlign=middle;resizable=0;points=[];fontFamily=Helvetica;" parent="47" vertex="1" connectable="0">
                    <mxGeometry x="-0.4812" relative="1" as="geometry">
                        <mxPoint y="9" as="offset"/>
                    </mxGeometry>
                </mxCell>
                <mxCell id="49" value="&lt;h2&gt;请求外卖信息&lt;/h2&gt;&lt;div&gt;&lt;b&gt;Q:&lt;/b&gt; 为什么是请求外卖信息，而不是请求柜子信息？&lt;/div&gt;&lt;div&gt;&lt;b&gt;A:&lt;/b&gt; 设计数据表时考虑到功能要求，决定只存放外卖信息。具体的柜子实现由前端实现渲染。&lt;/div&gt;&lt;div&gt;&lt;b&gt;具体考虑有：&lt;/b&gt;&lt;/div&gt;&lt;div&gt;1. 外卖柜大小规格不一，柜子坐标数据难以维护&lt;/div&gt;&lt;div&gt;2. 柜子需要维护的动态数据只有状态，而状态中的外卖过期判定和数据更新会占用较多的服务端资源&lt;/div&gt;&lt;div&gt;3. 已有外卖的存入日期数据，客户端（柜终端机）可直接算出柜中外卖是否到期&lt;/div&gt;&lt;div&gt;&lt;br&gt;&lt;/div&gt;&lt;div&gt;&lt;br&gt;&lt;/div&gt;&lt;div&gt;&lt;br&gt;&lt;/div&gt;" style="text;html=1;strokeColor=none;fillColor=none;spacing=5;spacingTop=-20;whiteSpace=wrap;overflow=hidden;rounded=0;fontFamily=Helvetica;" parent="1" vertex="1">
                    <mxGeometry x="518" y="230" width="260" height="230" as="geometry"/>
                </mxCell>
                <mxCell id="53" style="edgeStyle=none;html=1;entryX=0;entryY=0.5;entryDx=0;entryDy=0;" parent="1" source="50" target="45" edge="1">
                    <mxGeometry relative="1" as="geometry">
                        <mxPoint x="230" y="370" as="targetPoint"/>
                        <Array as="points">
                            <mxPoint x="250" y="370"/>
                            <mxPoint x="250" y="60"/>
                        </Array>
                    </mxGeometry>
                </mxCell>
                <mxCell id="54" value="N" style="edgeLabel;html=1;align=center;verticalAlign=middle;resizable=0;points=[];" parent="53" vertex="1" connectable="0">
                    <mxGeometry x="0.0064" relative="1" as="geometry">
                        <mxPoint as="offset"/>
                    </mxGeometry>
                </mxCell>
                <mxCell id="50" value="是否成功获取信息" style="rhombus;whiteSpace=wrap;html=1;" parent="1" vertex="1">
                    <mxGeometry x="297" y="330" width="168" height="80" as="geometry"/>
                </mxCell>
                <mxCell id="51" value="" style="edgeStyle=none;html=1;fontFamily=Helvetica;entryX=0.5;entryY=0;entryDx=0;entryDy=0;exitX=0.5;exitY=1;exitDx=0;exitDy=0;startArrow=none;endArrow=none;" parent="1" source="46" target="50" edge="1">
                    <mxGeometry relative="1" as="geometry">
                        <mxPoint x="382" y="310" as="sourcePoint"/>
                        <mxPoint x="380.9999999999999" y="520.0000000000001" as="targetPoint"/>
                    </mxGeometry>
                </mxCell>
                <mxCell id="55" value="&lt;h1&gt;外卖员流程&lt;/h1&gt;" style="text;html=1;align=center;verticalAlign=middle;resizable=0;points=[];autosize=1;strokeColor=none;fillColor=none;" parent="1" vertex="1">
                    <mxGeometry x="30" y="30" width="140" height="50" as="geometry"/>
                </mxCell>
            </root>
        </mxGraphModel>
    </diagram>
</mxfile>